<?xml version="1.0" standalone="no"?><!-- Generator: Gravit.io --><svg xmlns="http://www.w3.org/2000/svg" xmlns:xlink="http://www.w3.org/1999/xlink" style="isolation:isolate" viewBox="0 0 295 54" width="295" height="54"><defs><clipPath id="_clipPath_tb40lKq4ryzyG0NajgFkumQ8YID3LMEH"><rect x="0" y="0" width="295" height="54"/></clipPath></defs><g clip-path="url(#_clipPath_tb40lKq4ryzyG0NajgFkumQ8YID3LMEH)"><g style="isolation:isolate"><path d=" M 21.552 43.385 L 21.552 43.385 Q 15.444 43.385 10.517 40.702 L 10.517 40.702 L 10.517 40.702 Q 5.59 38.019 2.795 33.288 L 2.795 33.288 L 2.795 33.288 Q 0 28.558 0 22.615 L 0 22.615 L 0 22.615 Q 0 16.673 2.824 11.942 L 2.824 11.942 L 2.824 11.942 Q 5.647 7.212 10.574 4.529 L 10.574 4.529 L 10.574 4.529 Q 15.501 1.846 21.609 1.846 L 21.609 1.846 L 21.609 1.846 Q 26.565 1.846 30.657 3.577 L 30.657 3.577 L 30.657 3.577 Q 34.748 5.308 37.572 8.596 L 37.572 8.596 L 32.731 13.154 L 32.731 13.154 Q 28.352 8.423 21.955 8.423 L 21.955 8.423 L 21.955 8.423 Q 17.806 8.423 14.522 10.24 L 14.522 10.24 L 14.522 10.24 Q 11.237 12.058 9.393 15.288 L 9.393 15.288 L 9.393 15.288 Q 7.549 18.519 7.549 22.615 L 7.549 22.615 L 7.549 22.615 Q 7.549 26.712 9.393 29.942 L 9.393 29.942 L 9.393 29.942 Q 11.237 33.173 14.522 34.99 L 14.522 34.99 L 14.522 34.99 Q 17.806 36.808 21.955 36.808 L 21.955 36.808 L 21.955 36.808 Q 28.352 36.808 32.731 32.019 L 32.731 32.019 L 37.572 36.635 L 37.572 36.635 Q 34.748 39.923 30.628 41.654 L 30.628 41.654 L 30.628 41.654 Q 26.508 43.385 21.552 43.385 L 21.552 43.385 Z  M 57.913 43.212 L 57.913 43.212 Q 53.246 43.212 49.5 41.192 L 49.5 41.192 L 49.5 41.192 Q 45.754 39.173 43.651 35.567 L 43.651 35.567 L 43.651 35.567 Q 41.548 31.962 41.548 27.404 L 41.548 27.404 L 41.548 27.404 Q 41.548 22.846 43.651 19.269 L 43.651 19.269 L 43.651 19.269 Q 45.754 15.692 49.5 13.673 L 49.5 13.673 L 49.5 13.673 Q 53.246 11.654 57.913 11.654 L 57.913 11.654 L 57.913 11.654 Q 62.639 11.654 66.384 13.673 L 66.384 13.673 L 66.384 13.673 Q 70.13 15.692 72.233 19.269 L 72.233 19.269 L 72.233 19.269 Q 74.337 22.846 74.337 27.404 L 74.337 27.404 L 74.337 27.404 Q 74.337 31.962 72.233 35.567 L 72.233 35.567 L 72.233 35.567 Q 70.13 39.173 66.384 41.192 L 66.384 41.192 L 66.384 41.192 Q 62.639 43.212 57.913 43.212 L 57.913 43.212 Z  M 57.913 37.038 L 57.913 37.038 Q 61.89 37.038 64.483 34.385 L 64.483 34.385 L 64.483 34.385 Q 67.076 31.731 67.076 27.404 L 67.076 27.404 L 67.076 27.404 Q 67.076 23.077 64.483 20.423 L 64.483 20.423 L 64.483 20.423 Q 61.89 17.769 57.913 17.769 L 57.913 17.769 L 57.913 17.769 Q 53.937 17.769 51.373 20.423 L 51.373 20.423 L 51.373 20.423 Q 48.809 23.077 48.809 27.404 L 48.809 27.404 L 48.809 27.404 Q 48.809 31.731 51.373 34.385 L 51.373 34.385 L 51.373 34.385 Q 53.937 37.038 57.913 37.038 L 57.913 37.038 Z  M 104.186 0 L 111.39 0 L 111.39 42.808 L 104.475 42.808 L 104.475 38.827 L 104.475 38.827 Q 102.688 41.019 100.066 42.115 L 100.066 42.115 L 100.066 42.115 Q 97.444 43.212 94.275 43.212 L 94.275 43.212 L 94.275 43.212 Q 89.838 43.212 86.294 41.25 L 86.294 41.25 L 86.294 41.25 Q 82.75 39.288 80.733 35.683 L 80.733 35.683 L 80.733 35.683 Q 78.716 32.077 78.716 27.404 L 78.716 27.404 L 78.716 27.404 Q 78.716 22.731 80.733 19.154 L 80.733 19.154 L 80.733 19.154 Q 82.75 15.577 86.294 13.615 L 86.294 13.615 L 86.294 13.615 Q 89.838 11.654 94.275 11.654 L 94.275 11.654 L 94.275 11.654 Q 97.329 11.654 99.865 12.692 L 99.865 12.692 L 99.865 12.692 Q 102.4 13.731 104.186 15.808 L 104.186 15.808 L 104.186 0 Z  M 95.139 37.038 L 95.139 37.038 Q 97.732 37.038 99.807 35.856 L 99.807 35.856 L 99.807 35.856 Q 101.881 34.673 103.092 32.481 L 103.092 32.481 L 103.092 32.481 Q 104.302 30.288 104.302 27.404 L 104.302 27.404 L 104.302 27.404 Q 104.302 24.519 103.092 22.327 L 103.092 22.327 L 103.092 22.327 Q 101.881 20.135 99.807 18.952 L 99.807 18.952 L 99.807 18.952 Q 97.732 17.769 95.139 17.769 L 95.139 17.769 L 95.139 17.769 Q 92.546 17.769 90.472 18.952 L 90.472 18.952 L 90.472 18.952 Q 88.397 20.135 87.187 22.327 L 87.187 22.327 L 87.187 22.327 Q 85.977 24.519 85.977 27.404 L 85.977 27.404 L 85.977 27.404 Q 85.977 30.288 87.187 32.481 L 87.187 32.481 L 87.187 32.481 Q 88.397 34.673 90.472 35.856 L 90.472 35.856 L 90.472 35.856 Q 92.546 37.038 95.139 37.038 L 95.139 37.038 Z  M 149.768 27.577 L 149.768 27.577 Q 149.768 28.327 149.653 29.712 L 149.653 29.712 L 125.508 29.712 L 125.508 29.712 Q 126.142 33.115 128.821 35.106 L 128.821 35.106 L 128.821 35.106 Q 131.501 37.096 135.477 37.096 L 135.477 37.096 L 135.477 37.096 Q 140.548 37.096 143.833 33.75 L 143.833 33.75 L 147.693 38.192 L 147.693 38.192 Q 145.619 40.673 142.45 41.942 L 142.45 41.942 L 142.45 41.942 Q 139.28 43.212 135.304 43.212 L 135.304 43.212 L 135.304 43.212 Q 130.233 43.212 126.372 41.192 L 126.372 41.192 L 126.372 41.192 Q 122.511 39.173 120.408 35.567 L 120.408 35.567 L 120.408 35.567 Q 118.305 31.962 118.305 27.404 L 118.305 27.404 L 118.305 27.404 Q 118.305 22.904 120.35 19.298 L 120.35 19.298 L 120.35 19.298 Q 122.396 15.692 126.026 13.673 L 126.026 13.673 L 126.026 13.673 Q 129.657 11.654 134.209 11.654 L 134.209 11.654 L 134.209 11.654 Q 138.704 11.654 142.248 13.644 L 142.248 13.644 L 142.248 13.644 Q 145.792 15.635 147.78 19.24 L 147.78 19.24 L 147.78 19.24 Q 149.768 22.846 149.768 27.577 L 149.768 27.577 Z  M 134.209 17.423 L 134.209 17.423 Q 130.752 17.423 128.36 19.471 L 128.36 19.471 L 128.36 19.471 Q 125.969 21.519 125.45 24.923 L 125.45 24.923 L 142.911 24.923 L 142.911 24.923 Q 142.45 21.577 140.087 19.5 L 140.087 19.5 L 140.087 19.5 Q 137.724 17.423 134.209 17.423 L 134.209 17.423 Z  M 157.374 42.808 L 157.374 2.423 L 164.866 2.423 L 164.866 36.462 L 185.957 36.462 L 185.957 42.808 L 157.374 42.808 Z " fill-rule="evenodd" fill="rgb(61,72,82)"/><path d=" M 279.384 11.654 L 279.384 11.654 Q 283.878 11.654 287.422 13.615 L 287.422 13.615 L 287.422 13.615 Q 290.966 15.577 292.983 19.154 L 292.983 19.154 L 292.983 19.154 Q 295 22.731 295 27.404 L 295 27.404 L 295 27.404 Q 295 32.077 292.983 35.683 L 292.983 35.683 L 292.983 35.683 Q 290.966 39.288 287.422 41.25 L 287.422 41.25 L 287.422 41.25 Q 283.878 43.212 279.384 43.212 L 279.384 43.212 L 279.384 43.212 Q 273.16 43.212 269.53 39.058 L 269.53 39.058 L 269.53 54 L 262.326 54 L 262.326 12 L 269.184 12 L 269.184 16.038 L 269.184 16.038 Q 270.97 13.846 273.592 12.75 L 273.592 12.75 L 273.592 12.75 Q 276.214 11.654 279.384 11.654 L 279.384 11.654 Z  M 278.577 37.038 L 278.577 37.038 Q 282.553 37.038 285.117 34.385 L 285.117 34.385 L 285.117 34.385 Q 287.682 31.731 287.682 27.404 L 287.682 27.404 L 287.682 27.404 Q 287.682 23.077 285.117 20.423 L 285.117 20.423 L 285.117 20.423 Q 282.553 17.769 278.577 17.769 L 278.577 17.769 L 278.577 17.769 Q 275.984 17.769 273.909 18.952 L 273.909 18.952 L 273.909 18.952 Q 271.835 20.135 270.624 22.327 L 270.624 22.327 L 270.624 22.327 Q 269.414 24.519 269.414 27.404 L 269.414 27.404 L 269.414 27.404 Q 269.414 30.288 270.624 32.481 L 270.624 32.481 L 270.624 32.481 Q 271.835 34.673 273.909 35.856 L 273.909 35.856 L 273.909 35.856 Q 275.984 37.038 278.577 37.038 L 278.577 37.038 Z " fill-rule="evenodd" fill="rgb(61,72,82)"/><path d=" M 208.894 11.92 C 200.379 11.92 193.39 18.918 193.39 27.442 C 193.39 36.135 200.212 42.964 208.894 42.964 C 215.096 42.964 219.142 39.823 222.556 35.784 C 221.322 33.918 220.097 32.416 219.164 30.547 C 219.164 30.547 219.093 30.255 218.779 30.255 C 215.989 33.98 213.229 36.755 208.894 36.755 C 203.623 36.755 199.592 32.72 199.592 27.442 C 199.592 22.299 203.757 18.129 208.894 18.129 C 211.945 18.129 213.945 19.185 215.967 21.137 C 217.992 23.09 219.843 25.986 221.781 29.091 C 223.719 32.195 225.744 35.507 228.566 38.211 C 231.387 40.912 235.201 42.964 239.902 42.964 C 248.417 42.964 255.406 35.967 255.406 27.442 C 255.406 18.75 248.584 11.92 239.902 11.92 C 233.7 11.92 229.654 15.062 226.24 19.101 C 227.474 20.966 228.395 22.494 229.632 24.046 C 229.632 24.363 230.017 24.313 230.017 24.63 C 232.807 20.591 235.567 18.129 239.902 18.129 C 245.173 18.129 249.204 22.165 249.204 27.442 C 249.204 32.586 245.04 36.755 239.902 36.755 C 236.851 36.755 234.851 35.7 232.829 33.747 C 230.804 31.795 228.953 28.898 227.015 25.794 C 225.077 22.689 223.052 19.377 220.231 16.673 C 217.409 13.972 213.595 11.92 208.894 11.92 Z " fill="rgb(240,56,56)"/></g></g></svg>