<?xml version="1.0" standalone="no"?><!-- Generator: Gravit.io --><svg xmlns="http://www.w3.org/2000/svg" xmlns:xlink="http://www.w3.org/1999/xlink" style="isolation:isolate" viewBox="0 0 118 100" width="118" height="100"><defs><clipPath id="_clipPath_Qiy13vmilvJu7G66w1svo0gXOt1SEu39"><rect width="118" height="100"/></clipPath></defs><g clip-path="url(#_clipPath_Qiy13vmilvJu7G66w1svo0gXOt1SEu39)"><path d=" M 6.321 0 C 2.84 0 0 2.808 0 6.25 L 0 93.75 C 0 97.192 2.84 100 6.321 100 L 111.679 100 C 115.16 100 118 97.192 118 93.75 L 118 6.25 C 118 2.808 115.16 0 111.679 0 L 6.321 0 Z  M 6.321 4.167 L 111.679 4.167 C 112.837 4.167 113.786 5.104 113.786 6.25 L 113.786 93.75 C 113.786 94.896 112.837 95.833 111.679 95.833 L 6.321 95.833 C 5.162 95.833 4.214 94.896 4.214 93.75 L 4.214 25 L 90.607 25 C 91.771 25 92.714 24.067 92.714 22.917 C 92.714 21.766 91.771 20.833 90.607 20.833 L 4.214 20.833 L 4.214 6.25 C 4.214 5.104 5.162 4.167 6.321 4.167 Z  M 12.643 8.333 C 11.479 8.333 10.536 9.266 10.536 10.417 L 10.536 14.583 C 10.536 15.734 11.479 16.667 12.643 16.667 C 13.807 16.667 14.75 15.734 14.75 14.583 L 14.75 10.417 C 14.75 9.266 13.807 8.333 12.643 8.333 Z  M 23.179 8.333 C 22.015 8.333 21.071 9.266 21.071 10.417 L 21.071 14.583 C 21.071 15.734 22.015 16.667 23.179 16.667 C 24.342 16.667 25.286 15.734 25.286 14.583 L 25.286 10.417 C 25.286 9.266 24.342 8.333 23.179 8.333 Z  M 33.714 8.333 C 32.551 8.333 31.607 9.266 31.607 10.417 L 31.607 14.583 C 31.607 15.734 32.551 16.667 33.714 16.667 C 34.878 16.667 35.821 15.734 35.821 14.583 L 35.821 10.417 C 35.821 9.266 34.878 8.333 33.714 8.333 Z  M 44.25 8.333 C 43.086 8.333 42.143 9.266 42.143 10.417 L 42.143 14.583 C 42.143 15.734 43.086 16.667 44.25 16.667 C 45.414 16.667 46.357 15.734 46.357 14.583 L 46.357 10.417 C 46.357 9.266 45.414 8.333 44.25 8.333 Z  M 54.786 8.333 C 53.622 8.333 52.679 9.266 52.679 10.417 L 52.679 14.583 C 52.679 15.734 53.622 16.667 54.786 16.667 C 55.949 16.667 56.893 15.734 56.893 14.583 L 56.893 10.417 C 56.893 9.266 55.949 8.333 54.786 8.333 Z  M 65.321 8.333 C 64.158 8.333 63.214 9.266 63.214 10.417 L 63.214 14.583 C 63.214 15.734 64.158 16.667 65.321 16.667 C 66.485 16.667 67.429 15.734 67.429 14.583 L 67.429 10.417 C 67.429 9.266 66.485 8.333 65.321 8.333 Z  M 75.857 8.333 C 74.693 8.333 73.75 9.266 73.75 10.417 L 73.75 14.583 C 73.75 15.734 74.693 16.667 75.857 16.667 C 77.021 16.667 77.964 15.734 77.964 14.583 L 77.964 10.417 C 77.964 9.266 77.021 8.333 75.857 8.333 Z  M 86.393 8.333 C 85.229 8.333 84.286 9.266 84.286 10.417 L 84.286 14.583 C 84.286 15.734 85.229 16.667 86.393 16.667 C 87.557 16.667 88.5 15.734 88.5 14.583 L 88.5 10.417 C 88.5 9.266 87.557 8.333 86.393 8.333 Z  M 96.929 8.333 C 95.765 8.333 94.821 9.266 94.821 10.417 L 94.821 14.583 C 94.821 15.734 95.765 16.667 96.929 16.667 C 98.092 16.667 99.036 15.734 99.036 14.583 L 99.036 10.417 C 99.036 9.266 98.092 8.333 96.929 8.333 Z  M 107.464 8.333 C 106.301 8.333 105.357 9.266 105.357 10.417 L 105.357 14.583 C 105.357 15.734 106.301 16.667 107.464 16.667 C 108.628 16.667 109.571 15.734 109.571 14.583 L 109.571 10.417 C 109.571 9.266 108.628 8.333 107.464 8.333 Z  M 99.036 20.833 C 97.872 20.833 96.929 21.766 96.929 22.917 C 96.929 24.067 97.872 25 99.036 25 L 107.464 25 C 108.628 25 109.571 24.067 109.571 22.917 C 109.571 21.766 108.628 20.833 107.464 20.833 L 99.036 20.833 Z  M 64.993 33.358 C 64.156 33.486 63.48 34.1 63.28 34.912 L 50.637 84.912 C 50.476 85.535 50.616 86.195 51.016 86.701 C 51.415 87.208 52.029 87.502 52.679 87.5 C 53.627 87.5 54.48 86.875 54.72 85.929 L 67.363 35.929 C 67.501 35.393 67.418 34.824 67.13 34.348 C 66.842 33.873 66.375 33.531 65.831 33.398 C 65.558 33.324 65.272 33.309 64.993 33.356 L 64.993 33.358 Z  M 40.036 45.833 C 39.477 45.833 38.941 46.053 38.546 46.444 L 25.903 58.944 C 25.081 59.757 25.081 61.076 25.903 61.89 L 38.546 74.39 C 38.957 74.796 39.494 75 40.036 75 C 40.888 75 41.656 74.492 41.982 73.714 C 42.308 72.935 42.128 72.04 41.525 71.444 L 30.372 60.417 L 41.525 49.39 C 42.128 48.794 42.308 47.898 41.982 47.119 C 41.656 46.341 40.888 45.834 40.036 45.833 Z  M 77.964 45.833 C 77.112 45.834 76.344 46.341 76.018 47.119 C 75.692 47.898 75.872 48.794 76.475 49.39 L 87.628 60.417 L 76.475 71.444 C 75.927 71.967 75.707 72.741 75.9 73.47 C 76.093 74.198 76.668 74.767 77.405 74.958 C 78.142 75.148 78.925 74.931 79.454 74.39 L 92.097 61.89 C 92.919 61.076 92.919 59.757 92.097 58.944 L 79.454 46.444 C 79.059 46.053 78.523 45.833 77.964 45.833 Z " fill="rgb(61,72,82)" vector-effect="non-scaling-stroke" stroke-width="1" stroke="rgb(61,72,82)" stroke-linejoin="miter" stroke-linecap="butt" stroke-miterlimit="4"/></g></svg>