<?xml version="1.0" encoding="utf-8"?>
<!-- Generator: Adobe Illustrator 22.1.0, SVG Export Plug-In . SVG Version: 6.00 Build 0)  -->
<svg version="1.1" xmlns="http://www.w3.org/2000/svg" xmlns:xlink="http://www.w3.org/1999/xlink" x="0px" y="0px"
	 viewBox="0 0 108 108" style="enable-background:new 0 0 108 108;" xml:space="preserve">
<style type="text/css">
	.st0{fill:#F03838;}
	.st1{clip-path:url(#SVGID_2_);}
	.st2{fill:#FFFFFF;}
</style>
<g id="Layer_2">
	<g>
		<path class="st0" d="M108,103c0,2.8-2.2,5-5,5H5c-2.8,0-5-2.2-5-5V5c0-2.8,2.2-5,5-5h98c2.8,0,5,2.2,5,5V103z"/>
	</g>
</g>
<g id="Layer_1" xmlns:cc="http://creativecommons.org/ns#" xmlns:dc="http://purl.org/dc/elements/1.1/" xmlns:rdf="http://www.w3.org/1999/02/22-rdf-syntax-ns#" xmlns:svg="http://www.w3.org/2000/svg">
	<title  id="title917">Artboard 1</title>
	<g>
		<defs>
			
				<rect id="SVGID_1_" x="30.4" y="6.9" transform="matrix(0.7071 -0.7071 0.7071 0.7071 -22.3683 53.9983)" width="47.1" height="94.3"/>
		</defs>
		<clipPath id="SVGID_2_">
			<use xlink:href="#SVGID_1_"  style="overflow:visible;"/>
		</clipPath>
		<g id="g921" class="st1">
			<path id="path919" class="st2" d="M54,20.7c-9.2-9.2-24.1-9.2-33.3,0c-9.2,9-9.4,23.8-0.3,33c0.1,0.1,0.2,0.2,0.3,0.3
				c6.7,6.7,14.4,7.6,22.4,7c0.7-3.3,1-6.3,2-9.3c0.1-0.2,0.1-0.5-0.1-0.7c-7,1-12.9,1-17.6-3.6C21.8,42,21.6,33.2,27,27.7
				c0.1-0.1,0.2-0.2,0.4-0.4c5.5-5.5,14.5-5.5,20,0c3.3,3.3,4.3,6.6,4.4,10.8s-1,9.4-2.3,14.8c-1.2,5.5-2.6,11.1-2.5,17.1
				c0,6.5,2.6,12.6,7.1,17.2c9.2,9.2,24.1,9.2,33.3,0c9.2-9,9.4-23.8,0.3-33c-0.1-0.1-0.2-0.2-0.3-0.3c-6.7-6.7-14.4-7.6-22.4-7
				c-0.7,3.3-1.3,6-1.7,9c-0.3,0.3,0.1,0.7-0.2,1c7.3-1.3,12.9-1,17.6,3.6c5.5,5.3,5.7,14.1,0.4,19.6c-0.1,0.1-0.2,0.2-0.4,0.4
				c-5.5,5.5-14.5,5.5-20,0c-3.3-3.3-4.3-6.6-4.4-10.8c-0.1-4.3,1-9.4,2.3-14.8s2.6-11.2,2.5-17.1C61.1,31.5,58.5,25.3,54,20.7z"/>
		</g>
	</g>
</g>
</svg>
