<?xml version="1.0" encoding="utf-8"?>
<!-- Generator: Adobe Illustrator 22.1.0, SVG Export Plug-In . SVG Version: 6.00 Build 0)  -->
<svg version="1.1" id="Layer_1" xmlns="http://www.w3.org/2000/svg" xmlns:xlink="http://www.w3.org/1999/xlink" x="0px" y="0px"
	 viewBox="0 0 108 108" style="enable-background:new 0 0 108 108;" xml:space="preserve">
<style type="text/css">
	.st0{clip-path:url(#SVGID_2_);}
	.st1{fill:#F03838;}
</style>
<g>
	<defs>
		<rect id="SVGID_1_" x="27" y="0" transform="matrix(0.7071 -0.7071 0.7071 0.7071 -22.3676 54)" width="54" height="108"/>
	</defs>
	<clipPath id="SVGID_2_">
		<use xlink:href="#SVGID_1_"  style="overflow:visible;"/>
	</clipPath>
	<g class="st0">
		<path class="st1" d="M54,15.8c-10.5-10.5-27.7-10.5-38.2,0C5.1,26.5,5.1,43.3,15.8,54c7.6,7.6,16.5,8.8,25.7,8
			c0.8-3.8,1.1-7.2,2.3-10.6c0,0,0.3-0.4-0.1-0.8c-8,1.1-14.8,1.2-20.2-4.2c-6.5-6.5-6.5-16.4,0-22.9c6.3-6.3,16.6-6.3,22.9,0
			c3.8,3.8,4.9,7.5,5,12.4c0.1,4.9-1.2,10.7-2.6,16.9c-1.4,6.2-3,12.8-2.9,19.6c0.2,6.8,2.3,14,8.1,19.8c10.5,10.5,27.7,10.5,38.2,0
			c10.7-10.7,10.7-27.5,0-38.2c-7.6-7.6-16.5-8.8-25.7-8c-0.8,3.8-1.5,6.8-1.9,10.3c-0.4,0.4,0.1,0.8-0.2,1.2
			c8.4-1.5,14.8-1.2,20.2,4.2c6.5,6.5,6.5,16.4,0,22.9c-6.3,6.3-16.6,6.3-22.9,0c-3.8-3.8-4.9-7.5-5-12.4
			c-0.1-4.9,1.2-10.7,2.6-16.9c1.4-6.2,3-12.8,2.9-19.6C62,28.8,59.8,21.6,54,15.8z"/>
	</g>
</g>
</svg>
