<?xml version="1.0" standalone="no"?><!-- Generator: Gravit.io --><svg xmlns="http://www.w3.org/2000/svg" xmlns:xlink="http://www.w3.org/1999/xlink" style="isolation:isolate" viewBox="0 0 110 100" width="110" height="100"><defs><clipPath id="_clipPath_gJTTX2cxd0LZLSdoBQupC3TRjcEkYJxc"><rect width="110" height="100"/></clipPath></defs><g clip-path="url(#_clipPath_gJTTX2cxd0LZLSdoBQupC3TRjcEkYJxc)"><path d=" M 55 0 C 36.412 0 21.29 14.953 21.29 33.333 C 21.29 42.058 26.224 48.575 31 54.879 C 34.81 59.916 38.402 64.714 39.032 70.175 L 39.032 82.456 C 39.032 88.632 43.668 93.744 49.677 94.6 L 49.677 96.491 C 49.677 98.425 51.271 100 53.226 100 L 56.774 100 C 58.729 100 60.323 98.425 60.323 96.491 L 60.323 94.6 C 66.332 93.744 70.968 88.632 70.968 82.456 L 70.968 71.751 C 70.996 65.618 74.912 60.404 79.063 54.879 C 83.808 48.575 88.71 42.058 88.71 33.333 C 88.71 14.953 73.588 0 55 0 Z  M 55 3.509 C 71.633 3.509 85.161 16.886 85.161 33.333 C 85.161 40.9 80.614 46.944 76.219 52.789 C 72.243 58.079 68.14 63.526 67.503 70.065 L 56.774 70.065 L 56.774 64.912 C 56.774 63.947 55.976 63.158 55 63.158 C 54.024 63.158 53.226 63.947 53.226 64.912 L 53.226 70.072 L 42.629 70.072 C 41.985 63.535 37.847 58.072 33.841 52.775 C 29.413 46.93 24.839 40.893 24.839 33.333 C 24.839 16.886 38.367 3.509 55 3.509 Z  M 54.757 8.765 C 49.992 8.805 45.34 10.206 41.362 12.8 C 40.968 13.055 40.694 13.455 40.6 13.911 C 40.506 14.367 40.6 14.841 40.861 15.228 C 41.187 15.721 41.742 16.018 42.338 16.016 C 42.678 16.016 43.012 15.928 43.315 15.728 C 47.901 12.743 53.478 11.633 58.875 12.63 C 59.816 12.762 60.696 12.136 60.869 11.212 C 61.041 10.287 60.446 9.392 59.519 9.182 C 57.949 8.891 56.354 8.751 54.757 8.765 L 54.757 8.765 Z  M 67.169 12.061 C 66.332 11.942 65.527 12.423 65.244 13.211 C 64.961 13.999 65.28 14.874 66.005 15.304 C 67.467 16.181 68.833 17.235 70.052 18.449 C 70.385 18.78 70.838 18.966 71.31 18.966 C 71.782 18.966 72.235 18.78 72.568 18.449 C 73.261 17.764 73.261 16.654 72.568 15.968 C 71.145 14.563 69.555 13.332 67.835 12.302 C 67.631 12.18 67.405 12.098 67.169 12.061 Z  M 8.912 13.179 C 8.199 13.193 7.562 13.623 7.29 14.275 C 6.928 15.174 7.368 16.193 8.275 16.556 L 14.859 19.188 C 15.067 19.275 15.291 19.32 15.517 19.319 C 16.218 19.319 16.89 18.9 17.167 18.223 C 17.534 17.322 17.094 16.297 16.182 15.933 L 9.605 13.302 C 9.386 13.215 9.15 13.173 8.914 13.179 L 8.912 13.179 Z  M 101.088 13.179 C 100.851 13.173 100.615 13.215 100.395 13.302 L 93.818 15.933 C 92.909 16.296 92.466 17.319 92.833 18.223 C 93.11 18.9 93.782 19.319 94.483 19.319 C 94.709 19.32 94.933 19.275 95.141 19.188 L 101.723 16.556 C 102.634 16.2 103.07 15.172 102.71 14.275 C 102.439 13.623 101.802 13.192 101.088 13.179 Z  M 1.774 31.579 C 0.798 31.579 0 32.368 0 33.333 C 0 34.298 0.798 35.088 1.774 35.088 L 12.419 35.088 C 13.395 35.088 14.194 34.298 14.194 33.333 C 14.194 32.368 13.395 31.579 12.419 31.579 L 1.774 31.579 Z  M 97.581 31.579 C 96.605 31.579 95.806 32.368 95.806 33.333 C 95.806 34.298 96.605 35.088 97.581 35.088 L 108.226 35.088 C 109.202 35.088 110 34.298 110 33.333 C 110 32.368 109.202 31.579 108.226 31.579 L 97.581 31.579 Z  M 47.903 38.596 C 47.186 38.597 46.539 39.024 46.264 39.68 C 45.99 40.335 46.142 41.089 46.649 41.591 L 50.197 45.1 C 50.543 45.442 50.996 45.614 51.452 45.614 C 52.169 45.614 52.816 45.186 53.09 44.531 C 53.365 43.876 53.213 43.121 52.706 42.619 L 49.158 39.111 C 48.825 38.781 48.374 38.597 47.903 38.596 Z  M 62.097 38.596 C 61.626 38.597 61.175 38.781 60.842 39.111 L 53.746 46.128 C 53.413 46.457 53.226 46.903 53.226 47.368 L 53.226 57.895 C 53.226 58.86 54.024 59.649 55 59.649 C 55.976 59.649 56.774 58.86 56.774 57.895 L 56.774 48.095 L 63.351 41.591 C 63.858 41.089 64.01 40.335 63.736 39.68 C 63.461 39.024 62.814 38.597 62.097 38.596 Z  M 15.553 47.347 C 15.317 47.347 15.081 47.389 14.859 47.479 L 8.277 50.111 C 7.368 50.472 6.927 51.492 7.29 52.391 C 7.659 53.291 8.694 53.726 9.605 53.365 L 16.182 50.733 C 17.091 50.37 17.534 49.347 17.167 48.444 C 16.898 47.793 16.263 47.363 15.553 47.347 Z  M 94.447 47.354 C 93.737 47.37 93.102 47.8 92.833 48.451 C 92.468 49.352 92.908 50.375 93.818 50.74 L 100.395 53.365 C 101.306 53.726 102.341 53.291 102.71 52.391 C 103.07 51.493 102.631 50.475 101.725 50.111 L 95.141 47.479 C 94.922 47.391 94.686 47.349 94.449 47.356 L 94.447 47.354 Z  M 42.581 73.684 L 67.419 73.684 L 67.419 75.644 L 42.581 78.714 L 42.581 73.684 Z  M 67.419 79.181 L 67.419 82.456 C 67.419 82.526 67.398 82.593 67.398 82.668 L 49.379 84.896 C 48.914 84.953 48.49 85.191 48.203 85.558 C 47.915 85.924 47.788 86.389 47.848 86.849 C 47.956 87.726 48.708 88.384 49.601 88.384 C 49.677 88.384 49.747 88.384 49.823 88.37 L 66.477 86.314 C 65.028 89.214 62.035 91.228 58.548 91.228 L 51.452 91.228 C 46.558 91.228 42.581 87.295 42.581 82.456 L 42.581 82.251 L 67.419 79.181 Z  M 53.226 94.737 L 56.774 94.737 L 56.774 96.491 L 53.226 96.491 L 53.226 94.737 Z " fill="rgb(61,72,82)" vector-effect="non-scaling-stroke" stroke-width="1" stroke="rgb(61,72,82)" stroke-linejoin="miter" stroke-linecap="butt" stroke-miterlimit="4"/></g></svg>