<?xml version="1.0" standalone="no"?><!-- Generator: Gravit.io --><svg xmlns="http://www.w3.org/2000/svg" xmlns:xlink="http://www.w3.org/1999/xlink" style="isolation:isolate" viewBox="0 0 545 100" width="545" height="100"><defs><clipPath id="_clipPath_RyVD7OiDiYAc8kRzFC3NgW1X10coIhL7"><rect width="545" height="100"/></clipPath></defs><g clip-path="url(#_clipPath_RyVD7OiDiYAc8kRzFC3NgW1X10coIhL7)"><path d=" M 54.386 0 C 36.005 0 21.053 14.953 21.053 33.333 C 21.053 42.058 25.932 48.575 30.654 54.879 C 34.421 59.916 37.974 64.714 38.596 70.175 L 38.596 82.456 C 38.596 88.632 43.181 93.744 49.123 94.6 L 49.123 96.491 C 49.123 98.425 50.698 100 52.632 100 L 56.14 100 C 58.074 100 59.649 98.425 59.649 96.491 L 59.649 94.6 C 65.591 93.744 70.175 88.632 70.175 82.456 L 70.175 71.751 C 70.204 65.618 74.075 60.404 78.181 54.879 C 82.872 48.575 87.719 42.058 87.719 33.333 C 87.719 14.953 72.767 0 54.386 0 Z  M 54.386 3.509 C 70.833 3.509 84.211 16.886 84.211 33.333 C 84.211 40.9 79.714 46.944 75.368 52.789 C 71.437 58.079 67.379 63.526 66.749 70.065 L 56.14 70.065 L 56.14 64.912 C 56.14 63.947 55.351 63.158 54.386 63.158 C 53.421 63.158 52.632 63.947 52.632 64.912 L 52.632 70.072 L 42.153 70.072 C 41.516 63.535 37.425 58.072 33.463 52.775 C 29.084 46.93 24.561 40.893 24.561 33.333 C 24.561 16.886 37.939 3.509 54.386 3.509 Z  M 54.146 8.765 C 49.434 8.805 44.834 10.206 40.9 12.8 C 40.511 13.055 40.24 13.455 40.147 13.911 C 40.054 14.367 40.147 14.841 40.405 15.228 C 40.727 15.721 41.276 16.018 41.865 16.016 C 42.202 16.016 42.532 15.928 42.832 15.728 C 47.366 12.743 52.881 11.633 58.218 12.63 C 59.149 12.762 60.018 12.136 60.189 11.212 C 60.36 10.287 59.771 9.392 58.854 9.182 C 57.302 8.891 55.725 8.751 54.146 8.765 L 54.146 8.765 Z  M 66.419 12.061 C 65.592 11.942 64.795 12.423 64.516 13.211 C 64.236 13.999 64.551 14.874 65.268 15.304 C 66.714 16.181 68.065 17.235 69.27 18.449 C 69.599 18.78 70.047 18.966 70.514 18.966 C 70.981 18.966 71.429 18.78 71.758 18.449 C 72.443 17.764 72.443 16.654 71.758 15.968 C 70.35 14.563 68.779 13.332 67.077 12.302 C 66.876 12.18 66.652 12.098 66.419 12.061 Z  M 8.812 13.179 C 8.107 13.193 7.477 13.623 7.209 14.275 C 6.85 15.174 7.286 16.193 8.182 16.556 L 14.693 19.188 C 14.899 19.275 15.12 19.32 15.344 19.319 C 16.037 19.319 16.702 18.9 16.975 18.223 C 17.339 17.322 16.903 16.297 16.002 15.933 L 9.498 13.302 C 9.281 13.215 9.048 13.173 8.814 13.179 L 8.812 13.179 Z  M 99.96 13.179 C 99.725 13.173 99.492 13.215 99.274 13.302 L 92.77 15.933 C 91.872 16.296 91.433 17.319 91.796 18.223 C 92.07 18.9 92.735 19.319 93.428 19.319 C 93.652 19.32 93.873 19.275 94.079 19.188 L 100.588 16.556 C 101.488 16.2 101.919 15.172 101.563 14.275 C 101.295 13.623 100.665 13.192 99.96 13.179 Z  M 1.754 31.579 C 0.789 31.579 0 32.368 0 33.333 C 0 34.298 0.789 35.088 1.754 35.088 L 12.281 35.088 C 13.246 35.088 14.035 34.298 14.035 33.333 C 14.035 32.368 13.246 31.579 12.281 31.579 L 1.754 31.579 Z  M 96.491 31.579 C 95.526 31.579 94.737 32.368 94.737 33.333 C 94.737 34.298 95.526 35.088 96.491 35.088 L 107.018 35.088 C 107.982 35.088 108.772 34.298 108.772 33.333 C 108.772 32.368 107.982 31.579 107.018 31.579 L 96.491 31.579 Z  M 47.368 38.596 C 46.659 38.597 46.019 39.024 45.748 39.68 C 45.476 40.335 45.626 41.089 46.128 41.591 L 49.637 45.1 C 49.979 45.442 50.426 45.614 50.877 45.614 C 51.587 45.614 52.226 45.186 52.498 44.531 C 52.769 43.876 52.619 43.121 52.118 42.619 L 48.609 39.111 C 48.28 38.781 47.834 38.597 47.368 38.596 Z  M 61.404 38.596 C 60.938 38.597 60.492 38.781 60.163 39.111 L 53.146 46.128 C 52.817 46.457 52.632 46.903 52.632 47.368 L 52.632 57.895 C 52.632 58.86 53.421 59.649 54.386 59.649 C 55.351 59.649 56.14 58.86 56.14 57.895 L 56.14 48.095 L 62.644 41.591 C 63.145 41.089 63.295 40.335 63.024 39.68 C 62.753 39.024 62.113 38.597 61.404 38.596 Z  M 15.379 47.347 C 15.146 47.347 14.912 47.389 14.693 47.479 L 8.184 50.111 C 7.286 50.472 6.85 51.492 7.209 52.391 C 7.574 53.291 8.597 53.726 9.498 53.365 L 16.002 50.733 C 16.9 50.37 17.339 49.347 16.975 48.444 C 16.709 47.793 16.082 47.363 15.379 47.347 Z  M 93.393 47.354 C 92.69 47.37 92.063 47.8 91.796 48.451 C 91.435 49.352 91.871 50.375 92.77 50.74 L 99.274 53.365 C 100.175 53.726 101.198 53.291 101.563 52.391 C 101.919 51.493 101.485 50.475 100.589 50.111 L 94.079 47.479 C 93.862 47.391 93.629 47.349 93.395 47.356 L 93.393 47.354 Z  M 42.105 73.684 L 66.667 73.684 L 66.667 75.644 L 42.105 78.714 L 42.105 73.684 Z  M 66.667 79.181 L 66.667 82.456 C 66.667 82.526 66.646 82.593 66.646 82.668 L 48.828 84.896 C 48.368 84.953 47.949 85.191 47.664 85.558 C 47.38 85.924 47.254 86.389 47.314 86.849 C 47.421 87.726 48.165 88.384 49.047 88.384 C 49.123 88.384 49.191 88.384 49.267 88.37 L 65.735 86.314 C 64.302 89.214 61.342 91.228 57.895 91.228 L 50.877 91.228 C 46.039 91.228 42.105 87.295 42.105 82.456 L 42.105 82.251 L 66.667 79.181 Z  M 52.632 94.737 L 56.14 94.737 L 56.14 96.491 L 52.632 96.491 L 52.632 94.737 Z " fill="rgb(61,72,82)" vector-effect="non-scaling-stroke" stroke-width="1" stroke="rgb(61,72,82)" stroke-linejoin="miter" stroke-linecap="butt" stroke-miterlimit="4"/><path d=" M 239.737 7.895 C 236.839 7.895 234.474 10.26 234.474 13.158 L 234.474 86.842 C 234.474 89.74 236.839 92.105 239.737 92.105 L 327.456 92.105 C 330.354 92.105 332.719 89.74 332.719 86.842 L 332.719 13.158 C 332.719 10.26 330.354 7.895 327.456 7.895 L 239.737 7.895 Z  M 239.737 11.404 L 327.456 11.404 C 328.421 11.404 329.211 12.193 329.211 13.158 L 329.211 86.842 C 329.211 87.807 328.421 88.596 327.456 88.596 L 239.737 88.596 C 238.772 88.596 237.982 87.807 237.982 86.842 L 237.982 28.947 L 309.912 28.947 C 310.881 28.947 311.667 28.162 311.667 27.193 C 311.667 26.224 310.881 25.439 309.912 25.439 L 237.982 25.439 L 237.982 13.158 C 237.982 12.193 238.772 11.404 239.737 11.404 Z  M 245 14.912 C 244.031 14.912 243.246 15.698 243.246 16.667 L 243.246 20.175 C 243.246 21.144 244.031 21.93 245 21.93 C 245.969 21.93 246.754 21.144 246.754 20.175 L 246.754 16.667 C 246.754 15.698 245.969 14.912 245 14.912 Z  M 253.772 14.912 C 252.803 14.912 252.018 15.698 252.018 16.667 L 252.018 20.175 C 252.018 21.144 252.803 21.93 253.772 21.93 C 254.741 21.93 255.526 21.144 255.526 20.175 L 255.526 16.667 C 255.526 15.698 254.741 14.912 253.772 14.912 Z  M 262.544 14.912 C 261.575 14.912 260.79 15.698 260.79 16.667 L 260.79 20.175 C 260.79 21.144 261.575 21.93 262.544 21.93 C 263.513 21.93 264.298 21.144 264.298 20.175 L 264.298 16.667 C 264.298 15.698 263.513 14.912 262.544 14.912 Z  M 271.316 14.912 C 270.347 14.912 269.561 15.698 269.561 16.667 L 269.561 20.175 C 269.561 21.144 270.347 21.93 271.316 21.93 C 272.285 21.93 273.07 21.144 273.07 20.175 L 273.07 16.667 C 273.07 15.698 272.285 14.912 271.316 14.912 Z  M 280.088 14.912 C 279.119 14.912 278.333 15.698 278.333 16.667 L 278.333 20.175 C 278.333 21.144 279.119 21.93 280.088 21.93 C 281.057 21.93 281.842 21.144 281.842 20.175 L 281.842 16.667 C 281.842 15.698 281.057 14.912 280.088 14.912 Z  M 288.86 14.912 C 287.891 14.912 287.105 15.698 287.105 16.667 L 287.105 20.175 C 287.105 21.144 287.891 21.93 288.86 21.93 C 289.829 21.93 290.614 21.144 290.614 20.175 L 290.614 16.667 C 290.614 15.698 289.829 14.912 288.86 14.912 Z  M 297.632 14.912 C 296.663 14.912 295.877 15.698 295.877 16.667 L 295.877 20.175 C 295.877 21.144 296.663 21.93 297.632 21.93 C 298.601 21.93 299.386 21.144 299.386 20.175 L 299.386 16.667 C 299.386 15.698 298.601 14.912 297.632 14.912 Z  M 306.404 14.912 C 305.435 14.912 304.649 15.698 304.649 16.667 L 304.649 20.175 C 304.649 21.144 305.435 21.93 306.404 21.93 C 307.372 21.93 308.158 21.144 308.158 20.175 L 308.158 16.667 C 308.158 15.698 307.372 14.912 306.404 14.912 Z  M 315.175 14.912 C 314.207 14.912 313.421 15.698 313.421 16.667 L 313.421 20.175 C 313.421 21.144 314.207 21.93 315.175 21.93 C 316.144 21.93 316.93 21.144 316.93 20.175 L 316.93 16.667 C 316.93 15.698 316.144 14.912 315.175 14.912 Z  M 323.947 14.912 C 322.978 14.912 322.193 15.698 322.193 16.667 L 322.193 20.175 C 322.193 21.144 322.978 21.93 323.947 21.93 C 324.916 21.93 325.702 21.144 325.702 20.175 L 325.702 16.667 C 325.702 15.698 324.916 14.912 323.947 14.912 Z  M 316.93 25.439 C 315.961 25.439 315.175 26.224 315.175 27.193 C 315.175 28.162 315.961 28.947 316.93 28.947 L 323.947 28.947 C 324.916 28.947 325.702 28.162 325.702 27.193 C 325.702 26.224 324.916 25.439 323.947 25.439 L 316.93 25.439 Z  M 288.586 35.986 C 287.89 36.094 287.327 36.61 287.16 37.295 L 276.633 79.4 C 276.5 79.924 276.616 80.48 276.949 80.906 C 277.282 81.333 277.793 81.581 278.333 81.579 C 279.123 81.579 279.833 81.053 280.033 80.256 L 290.56 38.151 C 290.675 37.699 290.605 37.22 290.365 36.82 C 290.126 36.42 289.737 36.131 289.284 36.019 C 289.057 35.957 288.819 35.945 288.586 35.984 L 288.586 35.986 Z  M 267.807 46.491 C 267.342 46.491 266.896 46.676 266.567 47.005 L 256.04 57.532 C 255.356 58.217 255.356 59.327 256.04 60.012 L 266.567 70.539 C 266.909 70.881 267.356 71.053 267.807 71.053 C 268.517 71.052 269.156 70.625 269.428 69.97 C 269.699 69.314 269.549 68.56 269.047 68.058 L 259.761 58.772 L 269.047 49.486 C 269.549 48.984 269.699 48.23 269.428 47.574 C 269.156 46.919 268.517 46.491 267.807 46.491 Z  M 299.386 46.491 C 298.677 46.491 298.037 46.919 297.766 47.574 C 297.494 48.23 297.644 48.984 298.146 49.486 L 307.432 58.772 L 298.146 68.058 C 297.69 68.498 297.507 69.151 297.667 69.764 C 297.828 70.377 298.307 70.856 298.92 71.017 C 299.534 71.178 300.186 70.995 300.626 70.539 L 311.153 60.012 C 311.838 59.327 311.838 58.217 311.153 57.532 L 300.626 47.005 C 300.297 46.676 299.851 46.491 299.386 46.491 Z " fill="rgb(61,72,82)" vector-effect="non-scaling-stroke" stroke-width="1" stroke="rgb(61,72,82)" stroke-linejoin="miter" stroke-linecap="butt" stroke-miterlimit="4"/><path d=" M 544.388 7.017 L 542.526 7.071 C 542.526 7.071 529.628 7.243 517.197 13.431 C 512.9 15.567 508.976 18.381 505.574 21.764 C 501.125 26.211 494.847 33.51 489.125 40.404 L 473.993 40.404 C 473.519 40.451 473.083 40.688 472.788 41.062 L 464.016 51.589 C 463.642 52.053 463.53 52.676 463.719 53.241 C 463.907 53.806 464.37 54.237 464.947 54.385 L 475.639 57.071 L 475.035 57.839 L 474.816 58.059 L 474.705 58.387 C 474.705 58.387 474.556 59.004 474.597 59.594 C 474.611 59.813 474.651 60.101 474.707 60.361 L 470.921 66.72 C 470.921 66.72 470.751 67.062 470.702 67.269 C 470.655 67.504 470.636 67.743 470.647 67.982 C 470.661 68.489 470.784 69.057 471.086 69.736 C 471.69 71.092 472.977 72.889 475.746 75.657 C 478.514 78.418 480.304 79.713 481.667 80.317 C 482.346 80.618 482.914 80.741 483.421 80.755 C 483.676 80.762 483.93 80.748 484.133 80.701 C 484.34 80.652 484.683 80.482 484.683 80.482 L 491.097 76.697 C 491.337 76.746 491.611 76.794 491.811 76.808 C 492.398 76.848 493.016 76.697 493.016 76.697 L 493.346 76.589 L 493.619 76.369 L 494.332 75.82 L 497.018 86.457 C 497.165 87.034 497.596 87.497 498.162 87.686 C 498.727 87.874 499.35 87.762 499.814 87.389 L 510.34 78.617 C 510.758 78.284 511 77.78 511 77.246 L 511 62.224 C 517.942 56.454 525.29 50.183 529.64 45.832 C 533.232 42.234 535.925 38.211 537.919 34.21 C 544.079 21.799 544.333 8.878 544.333 8.878 L 544.388 7.017 Z  M 540.605 10.799 C 540.461 13.438 539.769 22.641 534.793 32.675 C 532.944 36.394 530.463 40.076 527.174 43.366 C 522.897 47.641 515.372 54.055 508.369 59.868 C 508.224 59.956 508.094 60.067 507.984 60.196 C 502.671 64.596 497.316 68.945 491.921 73.245 C 491.716 73.224 491.395 73.203 490.825 72.969 C 489.516 72.436 487.219 71.066 483.807 67.654 C 480.395 64.239 478.969 61.889 478.433 60.58 C 478.202 60.011 478.181 59.689 478.16 59.483 C 482.42 54.123 486.733 48.805 491.098 43.529 C 491.281 43.379 491.43 43.192 491.537 42.982 C 497.288 36.046 503.66 28.61 508.04 24.231 C 511.342 20.927 515.016 18.468 518.73 16.61 C 528.777 11.615 537.974 10.936 540.605 10.799 Z  M 518.018 24.615 C 513.193 24.615 509.246 28.562 509.246 33.387 C 509.246 38.211 513.193 42.159 518.018 42.159 C 522.842 42.159 526.79 38.211 526.79 33.387 C 526.79 28.562 522.842 24.615 518.018 24.615 Z  M 518.018 28.124 C 520.944 28.124 523.281 30.461 523.281 33.387 C 523.281 36.313 520.944 38.65 518.018 38.65 C 515.091 38.65 512.754 36.313 512.754 33.387 C 512.754 30.461 515.091 28.124 518.018 28.124 Z  M 474.981 43.913 L 486.219 43.913 C 482.854 48.018 480.086 51.506 478.051 54.055 L 468.509 51.643 L 474.981 43.913 Z  M 476.461 64.254 C 477.461 65.857 478.928 67.762 481.286 70.118 C 483.637 72.469 485.549 73.943 487.151 74.943 L 483.369 77.194 C 483.314 77.18 483.321 77.187 483.095 77.083 C 482.376 76.768 480.805 75.775 478.216 73.192 C 475.632 70.601 474.637 69.031 474.321 68.311 C 474.219 68.085 474.226 68.092 474.212 68.038 L 476.461 64.254 Z  M 507.491 65.185 L 507.491 76.424 L 499.761 82.894 L 497.349 73.408 C 500.749 70.691 504.13 67.95 507.491 65.185 L 507.491 65.185 Z  M 469.607 72.368 C 466.742 74.568 464.151 74.848 461.823 77.136 C 460.658 78.282 459.732 79.906 459.191 82.125 C 458.649 84.346 458.421 87.211 458.421 91.229 L 458.421 92.983 L 460.176 92.983 C 468.235 92.983 472.176 91.708 474.54 89.31 C 476.904 86.911 477.295 84.239 479.091 81.799 L 476.239 79.715 C 473.965 82.813 473.458 85.382 472.018 86.843 C 470.751 88.131 467.926 89.076 462.095 89.31 C 462.183 86.761 462.307 84.313 462.644 82.95 C 463.083 81.175 463.616 80.318 464.288 79.661 C 465.625 78.345 468.242 77.755 471.69 75.11 L 469.607 72.368 Z  M 483.095 77.355 L 482.93 77.466 L 482.93 77.411 C 482.93 77.411 483.026 77.383 483.095 77.355 Z " fill="rgb(61,72,82)" vector-effect="non-scaling-stroke" stroke-width="1" stroke="rgb(61,72,82)" stroke-linejoin="miter" stroke-linecap="butt" stroke-miterlimit="4"/><path d=" M 148.126 45.31 L 178.479 42.938 L 178.479 35.47 C 178.479 34.692 178.845 34.108 179.576 33.525 C 180.308 33.33 181.041 33.33 181.588 33.719 C 189.084 39.168 196.219 48.294 196.398 48.683 C 196.576 49.055 196.745 49.608 196.754 49.999 L 196.763 50.037 C 196.763 50.426 196.585 51.01 196.398 51.204 C 196.219 51.593 189.265 60.748 181.588 66.196 C 180.856 66.585 180.123 66.78 179.576 66.391 C 178.845 66.002 178.479 65.418 178.479 64.64 L 178.479 57.17 L 148.126 54.798 C 147.214 54.039 146.482 52.13 146.482 50.037 C 146.482 48.147 147.026 46.071 148.126 45.31 Z " fill="rgb(255,252,252)" vector-effect="non-scaling-stroke" stroke-width="3" stroke="rgb(61,72,82)" stroke-linejoin="miter" stroke-linecap="butt" stroke-miterlimit="4"/><path d=" M 372.073 45.31 L 402.427 42.938 L 402.427 35.47 C 402.427 34.692 402.792 34.108 403.524 33.525 C 404.255 33.33 404.989 33.33 405.535 33.719 C 413.031 39.168 420.167 48.294 420.345 48.683 C 420.523 49.055 420.692 49.608 420.701 49.999 L 420.711 50.037 C 420.711 50.426 420.532 51.01 420.345 51.204 C 420.167 51.593 413.212 60.748 405.535 66.196 C 404.804 66.585 404.07 66.78 403.524 66.391 C 402.792 66.002 402.427 65.418 402.427 64.64 L 402.427 57.17 L 372.073 54.798 C 371.161 54.039 370.43 52.13 370.43 50.037 C 370.43 48.147 370.974 46.071 372.073 45.31 Z " fill="rgb(255,252,252)" vector-effect="non-scaling-stroke" stroke-width="3" stroke="rgb(61,72,82)" stroke-linejoin="miter" stroke-linecap="butt" stroke-miterlimit="4"/></g></svg>