<?xml version="1.0" standalone="no"?><!-- Generator: Gravit.io --><svg xmlns="http://www.w3.org/2000/svg" xmlns:xlink="http://www.w3.org/1999/xlink" style="isolation:isolate" viewBox="0 0 100 100" width="100" height="100"><defs><clipPath id="_clipPath_fFGGryuFKEzJ3e3wkp6fhbzetjwlKcwG"><rect width="100" height="100"/></clipPath></defs><g clip-path="url(#_clipPath_fFGGryuFKEzJ3e3wkp6fhbzetjwlKcwG)"><path d=" M 100 0 L 97.835 0.063 C 97.835 0.063 82.831 0.263 68.37 7.461 C 63.373 9.946 58.808 13.219 54.85 17.155 C 49.674 22.328 42.373 30.818 35.716 38.838 L 18.114 38.838 C 17.562 38.892 17.056 39.168 16.712 39.603 L 6.508 51.848 C 6.073 52.388 5.943 53.112 6.162 53.77 C 6.382 54.428 6.92 54.929 7.592 55.101 L 20.028 58.225 L 19.326 59.119 L 19.071 59.374 L 18.942 59.756 C 18.942 59.756 18.769 60.474 18.816 61.16 C 18.832 61.415 18.879 61.75 18.945 62.052 L 14.541 69.45 C 14.541 69.45 14.343 69.848 14.285 70.088 C 14.231 70.361 14.209 70.639 14.222 70.917 C 14.238 71.507 14.381 72.168 14.732 72.958 C 15.434 74.535 16.932 76.625 20.153 79.845 C 23.373 83.057 25.455 84.564 27.04 85.266 C 27.83 85.617 28.491 85.759 29.081 85.776 C 29.377 85.784 29.673 85.768 29.91 85.713 C 30.15 85.655 30.548 85.457 30.548 85.457 L 38.009 81.055 C 38.289 81.113 38.607 81.168 38.84 81.184 C 39.524 81.231 40.242 81.055 40.242 81.055 L 40.626 80.929 L 40.944 80.674 L 41.773 80.035 L 44.897 92.408 C 45.069 93.08 45.57 93.618 46.228 93.838 C 46.886 94.057 47.61 93.927 48.15 93.492 L 60.395 83.288 C 60.88 82.901 61.162 82.315 61.162 81.694 L 61.162 64.219 C 69.237 57.507 77.784 50.213 82.845 45.152 C 87.023 40.967 90.155 36.287 92.476 31.632 C 99.641 17.196 99.937 2.165 99.937 2.165 L 100 0 Z  M 95.6 4.4 C 95.433 7.469 94.627 18.175 88.839 29.846 C 86.688 34.173 83.802 38.456 79.976 42.283 C 75.001 47.256 66.248 54.717 58.101 61.478 C 57.933 61.581 57.782 61.71 57.654 61.86 C 51.473 66.978 45.244 72.038 38.969 77.039 C 38.73 77.015 38.356 76.99 37.693 76.719 C 36.171 76.098 33.499 74.505 29.53 70.535 C 25.561 66.564 23.902 63.829 23.279 62.307 C 23.01 61.646 22.985 61.27 22.961 61.031 C 27.917 54.796 32.934 48.61 38.011 42.473 C 38.224 42.298 38.398 42.081 38.522 41.836 C 45.211 33.769 52.623 25.118 57.719 20.024 C 61.56 16.181 65.833 13.32 70.154 11.159 C 81.841 5.349 92.539 4.559 95.6 4.4 Z  M 69.325 20.471 C 63.713 20.471 59.121 25.063 59.121 30.675 C 59.121 36.287 63.713 40.879 69.325 40.879 C 74.937 40.879 79.529 36.287 79.529 30.675 C 79.529 25.063 74.937 20.471 69.325 20.471 Z  M 69.325 24.553 C 72.729 24.553 75.447 27.271 75.447 30.675 C 75.447 34.079 72.729 36.797 69.325 36.797 C 65.921 36.797 63.203 34.079 63.203 30.675 C 63.203 27.271 65.921 24.553 69.325 24.553 Z  M 19.263 42.92 L 32.336 42.92 C 28.422 47.695 25.202 51.752 22.834 54.717 L 11.734 51.911 L 19.263 42.92 Z  M 20.985 66.58 C 22.149 68.446 23.855 70.662 26.597 73.403 C 29.332 76.137 31.556 77.851 33.42 79.015 L 29.02 81.633 C 28.957 81.617 28.965 81.625 28.701 81.504 C 27.865 81.137 26.038 79.982 23.026 76.978 C 20.02 73.964 18.863 72.137 18.496 71.301 C 18.377 71.037 18.385 71.045 18.369 70.982 L 20.985 66.58 Z  M 57.08 67.664 L 57.08 80.737 L 48.089 88.264 L 45.283 77.229 C 49.238 74.068 53.17 70.88 57.08 67.664 L 57.08 67.664 Z  M 13.012 76.019 C 9.679 78.578 6.665 78.905 3.957 81.566 C 2.602 82.898 1.524 84.788 0.896 87.37 C 0.265 89.953 0 93.286 0 97.959 L 0 100 L 2.041 100 C 11.416 100 16 98.516 18.751 95.727 C 21.5 92.937 21.955 89.829 24.044 86.99 L 20.726 84.566 C 18.081 88.17 17.491 91.157 15.816 92.857 C 14.343 94.355 11.057 95.455 4.273 95.727 C 4.375 92.761 4.52 89.914 4.912 88.329 C 5.422 86.264 6.043 85.268 6.824 84.502 C 8.379 82.972 11.424 82.286 15.434 79.209 L 13.012 76.019 Z  M 28.701 81.821 L 28.51 81.949 L 28.51 81.886 C 28.51 81.886 28.622 81.853 28.701 81.821 Z " fill="rgb(61,72,82)" vector-effect="non-scaling-stroke" stroke-width="1" stroke="rgb(61,72,82)" stroke-linejoin="miter" stroke-linecap="butt" stroke-miterlimit="4"/></g></svg>