<?xml version="1.0" encoding="utf-8"?>
<!-- Generator: Adobe Illustrator 20.1.0, SVG Export Plug-In . SVG Version: 6.00 Build 0)  -->
<svg version="1.1" id="Layer_1" xmlns="http://www.w3.org/2000/svg" xmlns:xlink="http://www.w3.org/1999/xlink" x="0px" y="0px"
	 viewBox="0 0 230 69.2" enable-background="new 0 0 230 69.2" xml:space="preserve">
<path fill="#666666" d="M12.4,25.5H4.6c-2.1,0-3.8-1.5-3.8-3.4c0-1.8,1.7-3.4,3.8-3.4h23.8c2.1,0,3.8,1.5,3.8,3.4
	c0,1.8-1.7,3.4-3.8,3.4h-7.8v23.1c0,2-1.8,3.6-4.1,3.6c-2.3,0-4.1-1.6-4.1-3.6V25.5z"/>
<path fill="#666666" d="M40.8,22.4c0-2,1.8-3.6,4.1-3.6h12.9c4.7,0,8.4,1.2,10.8,3.4c2.1,1.8,3.2,4.5,3.2,7.6v0.1
	c0,5.2-2.9,8.4-7.4,10.1l5.7,6.2c0.8,0.9,1.3,1.7,1.3,2.8c0,2-1.9,3.4-3.9,3.4c-1.9,0-3.1-0.8-4-1.9l-7.9-9h-6.5v7.2
	c0,2-1.8,3.6-4.1,3.6c-2.3,0-4.1-1.6-4.1-3.6V22.4z M57.2,34.9c4,0,6.2-1.9,6.2-4.7v-0.1c0-3.1-2.4-4.7-6.4-4.7h-8.1v9.5H57.2z"/>
<path fill="#666666" d="M79.6,47.3l12.9-26.1c0.9-1.8,2.5-2.9,4.8-2.9h0.5c2.2,0,3.8,1.1,4.7,2.9l12.9,26.1c0.3,0.5,0.4,1,0.4,1.5
	c0,1.9-1.7,3.5-3.9,3.5c-1.9,0-3.2-1-3.9-2.5l-2.5-5.2H89.3L86.7,50c-0.7,1.4-2.1,2.3-3.8,2.3c-2.1,0-3.8-1.5-3.8-3.4
	C79.2,48.3,79.4,47.8,79.6,47.3z M102.6,38.1l-5.1-10.9l-5.1,10.9H102.6z"/>
<path fill="#666666" d="M133.3,33V21.7c0-2.1-1.8-3.7-4.1-3.7c-2.3,0-4.1,1.6-4.1,3.7v26.8c0,2.1,1.8,3.7,4.1,3.7
	c2.3,0,4.1-1.6,4.1-3.7v-6.7V33z"/>
<polygon fill="#3AB14A" points="138.8,34.5 138.9,34.5 138.8,34.5 "/>
<path fill="#27B4E8" d="M162.3,22.4"/>
<path fill="#27B4E8" d="M195.2,1c-15.2,0-28,10-32.1,23.8l-11.1,9.7l11.1,9.7c4.2,13.8,17,23.8,32.1,23.8c18.5,0,33.6-15,33.6-33.6
	C228.8,16.1,213.8,1,195.2,1z M195.2,63.6c-16,0-29-13-29-29c0-16,13-29,29-29s29,13,29,29C224.2,50.6,211.3,63.6,195.2,63.6z"/>
<g>
	<path fill="#27B4E8" d="M181.1,30.7c-1.9,0-3.5,1.3-3.5,2.9v15.1c0,1.6,1.6,2.9,3.5,2.9c1.9,0,3.5-1.3,3.5-2.9V33.6
		C184.6,32,183,30.7,181.1,30.7z"/>
	<path fill="#27B4E8" d="M198.1,26h-7.5c-2,0-3.6-1.5-3.6-3.2c0-1.8,1.6-3.2,3.6-3.2h22.9c2,0,3.6,1.5,3.6,3.2
		c0,1.8-1.6,3.2-3.6,3.2h-7.5v22.1c0,2-1.7,3.5-3.9,3.5s-3.9-1.5-3.9-3.5V26z"/>
	<circle fill="#27B4E8" cx="181.1" cy="23.4" r="3.9"/>
</g>
<path fill="#27B4E8" d="M145,34.6l11.3-10.7c2-1.9,2-5,0.2-6.9c-1.9-2-5-2-6.9-0.2l-14.7,14c-0.8,0.8-1.3,1.8-1.4,2.9
	c-0.4,1.6,0.1,3.3,1.3,4.5L149,52.5c1.9,1.9,5,1.9,6.9,0s1.9-5,0-6.9L145,34.6z"/>
<g>
</g>
<g>
</g>
<g>
</g>
<g>
</g>
<g>
</g>
<g>
</g>
</svg>
